<svg width="18" height="21" viewBox="0 0 18 21" fill="none" xmlns="http://www.w3.org/2000/svg">
<path d="M9.0038 5.63366C6.44844 5.63366 4.38728 7.85799 4.38728 10.6156C4.38728 13.3733 6.44844 15.5976 9.0038 15.5976C11.5592 15.5976 13.6203 13.3733 13.6203 10.6156C13.6203 7.85799 11.5592 5.63366 9.0038 5.63366ZM9.0038 13.8546C7.35246 13.8546 6.00246 12.4021 6.00246 10.6156C6.00246 8.82924 7.34844 7.37671 9.0038 7.37671C10.6592 7.37671 12.0051 8.82924 12.0051 10.6156C12.0051 12.4021 10.6551 13.8546 9.0038 13.8546ZM14.8859 5.42987C14.8859 6.07593 14.4038 6.5919 13.8092 6.5919C13.2105 6.5919 12.7324 6.07159 12.7324 5.42987C12.7324 4.78815 13.2145 4.26784 13.8092 4.26784C14.4038 4.26784 14.8859 4.78815 14.8859 5.42987ZM17.9435 6.60925C17.8752 5.05264 17.5458 3.67382 16.4891 2.5378C15.4364 1.40179 14.1587 1.04624 12.7163 0.968193C11.2297 0.877139 6.77389 0.877139 5.28728 0.968193C3.84889 1.0419 2.57121 1.39745 1.51451 2.53347C0.457814 3.66948 0.132368 5.04831 0.0600464 6.60491C-0.0243286 8.20921 -0.0243286 13.0178 0.0600464 14.6221C0.12835 16.1787 0.457814 17.5575 1.51451 18.6935C2.57121 19.8295 3.84487 20.1851 5.28728 20.2631C6.77389 20.3542 11.2297 20.3542 12.7163 20.2631C14.1587 20.1894 15.4364 19.8338 16.4891 18.6935C17.5417 17.5575 17.8712 16.1787 17.9435 14.6221C18.0279 13.0178 18.0279 8.21354 17.9435 6.60925ZM16.023 16.3434C15.7096 17.1933 15.1029 17.848 14.3114 18.1905C13.1261 18.6978 10.3136 18.5808 9.0038 18.5808C7.69398 18.5808 4.87746 18.6935 3.69621 18.1905C2.90871 17.8523 2.30201 17.1976 1.9846 16.3434C1.51451 15.0643 1.62299 12.0292 1.62299 10.6156C1.62299 9.20214 1.51853 6.16264 1.9846 4.88788C2.29799 4.03804 2.90469 3.38331 3.69621 3.04077C4.88148 2.53347 7.69398 2.65054 9.0038 2.65054C10.3136 2.65054 13.1301 2.5378 14.3114 3.04077C15.0989 3.37897 15.7056 4.0337 16.023 4.88788C16.4931 6.16698 16.3846 9.20214 16.3846 10.6156C16.3846 12.0292 16.4931 15.0687 16.023 16.3434Z" fill="#3EA1D1"/>
</svg>
