<svg width="21" height="18" viewBox="0 0 21 18" fill="none" xmlns="http://www.w3.org/2000/svg">
<path d="M18.8413 4.3429C18.8547 4.52944 18.8547 4.71602 18.8547 4.90256C18.8547 10.5922 14.5241 17.1481 6.60913 17.1481C4.17067 17.1481 1.90546 16.4419 0 15.216C0.346459 15.256 0.679547 15.2693 1.03934 15.2693C3.05136 15.2693 4.90354 14.5898 6.3826 13.4305C4.49047 13.3905 2.90481 12.1513 2.35848 10.4457C2.625 10.4856 2.89148 10.5123 3.17133 10.5123C3.55774 10.5123 3.94419 10.459 4.30393 10.3658C2.33186 9.96598 0.852756 8.23376 0.852756 6.14176V6.08848C1.4257 6.40828 2.092 6.60815 2.79817 6.63477C1.6389 5.86191 0.879416 4.54277 0.879416 3.05037C0.879416 2.2509 1.09257 1.51803 1.46569 0.878432C3.58436 3.4901 6.76901 5.19565 10.34 5.38223C10.2734 5.06244 10.2334 4.72935 10.2334 4.39622C10.2334 2.02437 12.1522 0.0922852 14.5374 0.0922852C15.7766 0.0922852 16.8959 0.611953 17.682 1.45142C18.6547 1.26488 19.5875 0.905092 20.4136 0.412084C20.0938 1.41147 19.4143 2.25094 18.5215 2.78389C19.3876 2.69067 20.2271 2.45077 20.9999 2.11768C20.4137 2.97043 19.6808 3.72992 18.8413 4.3429Z" fill="#3EA1D1"/>
</svg>
